<mxfile host="app.diagrams.net" modified="2023-10-03T08:06:58.040Z" agent="Mozilla/5.0 (Windows NT 10.0; Win64; x64) AppleWebKit/537.36 (KHTML, like Gecko) Chrome/117.0.0.0 Safari/537.36" etag="fL2lnDvUBbg0-jMTxsZq" version="22.0.1" type="github">
  <diagram name="Page-1" id="YYRPqTuLn1ylkagVdyue">
    <mxGraphModel dx="1114" dy="610" grid="1" gridSize="10" guides="1" tooltips="1" connect="1" arrows="1" fold="1" page="1" pageScale="1" pageWidth="850" pageHeight="1100" math="0" shadow="0">
      <root>
        <mxCell id="0" />
        <mxCell id="1" parent="0" />
        <mxCell id="H_REwF4HqU3ZycA_Lh0G-1" value="anggota pengunjung" style="shape=umlActor;verticalLabelPosition=bottom;verticalAlign=top;html=1;outlineConnect=0;" vertex="1" parent="1">
          <mxGeometry x="90" y="215" width="70" height="120" as="geometry" />
        </mxCell>
        <mxCell id="H_REwF4HqU3ZycA_Lh0G-2" value="" style="whiteSpace=wrap;html=1;aspect=fixed;" vertex="1" parent="1">
          <mxGeometry x="190" y="80" width="390" height="390" as="geometry" />
        </mxCell>
        <mxCell id="H_REwF4HqU3ZycA_Lh0G-4" value="Pustakawan" style="shape=umlActor;verticalLabelPosition=bottom;verticalAlign=top;html=1;outlineConnect=0;" vertex="1" parent="1">
          <mxGeometry x="620" y="230" width="70" height="120" as="geometry" />
        </mxCell>
        <mxCell id="H_REwF4HqU3ZycA_Lh0G-5" value="&lt;font style=&quot;font-size: 18px;&quot;&gt;login&lt;/font&gt;" style="ellipse;whiteSpace=wrap;html=1;" vertex="1" parent="1">
          <mxGeometry x="325" y="150" width="120" height="80" as="geometry" />
        </mxCell>
        <mxCell id="H_REwF4HqU3ZycA_Lh0G-6" value="&lt;font style=&quot;font-size: 12px;&quot;&gt;Perpustakaan Digital&lt;/font&gt;" style="text;html=1;strokeColor=none;fillColor=none;align=center;verticalAlign=middle;whiteSpace=wrap;rounded=0;" vertex="1" parent="1">
          <mxGeometry x="305" y="100" width="160" height="30" as="geometry" />
        </mxCell>
      </root>
    </mxGraphModel>
  </diagram>
</mxfile>
